<svg width="16" height="16" viewBox="0 0 16 16" fill="none" xmlns="http://www.w3.org/2000/svg">
<path fill-rule="evenodd" clip-rule="evenodd" d="M4.25 5.5C4.25 3.42893 5.92893 1.75 8 1.75C10.0711 1.75 11.75 3.42893 11.75 5.5V7C12.5784 7 13.25 7.67157 13.25 8.5V11C13.25 13.2091 11.4591 15 9.25 15H6.75C4.54086 15 2.75 13.2091 2.75 11V8.5C2.75 7.67157 3.42157 7 4.25 7L4.25 5.5ZM10.25 5.5V7H5.75V5.5C5.75 4.25736 6.75736 3.25 8 3.25C9.24264 3.25 10.25 4.25736 10.25 5.5ZM7.25 10.25C7.25 9.83579 7.58579 9.5 8 9.5C8.41421 9.5 8.75 9.83579 8.75 10.25C8.75 10.5766 8.5413 10.8544 8.25 10.9573V11.75C8.25 11.8881 8.13807 12 8 12C7.86193 12 7.75 11.8881 7.75 11.75V10.9573C7.4587 10.8544 7.25 10.5766 7.25 10.25Z" fill="#A6A6A6"/>
</svg>
