<svg width="47" height="14" viewBox="0 0 47 14" fill="none" xmlns="http://www.w3.org/2000/svg">
<path fill-rule="evenodd" clip-rule="evenodd" d="M4.31542 0.335424C4.73233 0.33293 5.97138 0.221335 6.49621 1.99266C6.84975 3.18584 7.41291 5.14033 8.18569 7.85612H8.50042C9.32916 4.99294 9.89847 3.03845 10.2083 1.99266C10.7386 0.202883 12.0644 0.335459 12.5947 0.335459L16.6861 0.335464V13.0627H12.516V5.56233H12.2364L9.91178 13.0627H6.77433L4.44971 5.55677H4.17008V13.0627H0V0.335464L4.31542 0.335424ZM22.6743 0.335464V7.84142H23.0069L25.8346 1.66933C26.3835 0.441062 27.5534 0.335464 27.5534 0.335464H31.5888V13.0627H27.3316V5.55677H26.999L24.2267 11.7289C23.6778 12.9516 22.4525 13.0627 22.4525 13.0627H18.4171V0.335464H22.6743ZM46.3035 6.38355C45.7096 8.06632 43.8448 9.27148 41.7801 9.27148H37.3156V13.0627H33.2673V6.38355H46.3035Z" fill="#0F754E"/>
<path fill-rule="evenodd" clip-rule="evenodd" d="M41.9754 0.335449H33.0551C33.2673 3.16897 35.7075 5.59465 38.2336 5.59465H46.5848C47.0667 3.23966 45.4077 0.335449 41.9754 0.335449Z" fill="url(#paint0_linear_1412_430)"/>
<defs>
<linearGradient id="paint0_linear_1412_430" x1="46.6667" y1="3.64371" x2="33.0551" y2="3.64371" gradientUnits="userSpaceOnUse">
<stop stop-color="#1F5CD7"/>
<stop offset="1" stop-color="#02AEFF"/>
</linearGradient>
</defs>
</svg>
