<svg width="54" height="32" viewBox="0 0 54 32" fill="none" xmlns="http://www.w3.org/2000/svg">
<path fill-rule="evenodd" clip-rule="evenodd" d="M15.6338 22.5577H11.8374L8.99054 11.6969C8.85542 11.1973 8.56852 10.7556 8.14649 10.5475C7.09328 10.0243 5.9327 9.60801 4.66663 9.39803V8.97989H10.7823C11.6264 8.97989 12.2594 9.60801 12.3649 10.3375L13.842 18.1718L17.6365 8.97989H21.3274L15.6338 22.5577ZM23.4375 22.5577H19.8521L22.8045 8.97989H26.3898L23.4375 22.5577ZM31.0285 12.7414C31.134 12.0101 31.767 11.5919 32.5055 11.5919C33.6661 11.4869 34.9303 11.6969 35.9854 12.2182L36.6184 9.29486C35.5634 8.87672 34.4028 8.66675 33.3496 8.66675C29.8697 8.66675 27.3376 10.5475 27.3376 13.1577C27.3376 15.1434 29.1312 16.186 30.3973 16.8142C31.767 17.4405 32.2945 17.8586 32.189 18.4849C32.189 19.4244 31.134 19.8425 30.0807 19.8425C28.8147 19.8425 27.5486 19.5294 26.3899 19.0062L25.7568 21.9314C27.0229 22.4527 28.3926 22.6627 29.6587 22.6627C33.5606 22.7659 35.9854 20.887 35.9854 18.0668C35.9854 14.5153 31.0285 14.3071 31.0285 12.7414ZM48.5333 22.5577L45.6865 8.97989H42.6286C41.9956 8.97989 41.3625 9.39803 41.1515 10.0243L35.8799 22.5577H39.5708L40.3075 20.5738H44.8424L45.2644 22.5577H48.5333ZM43.1562 12.6364L44.2094 17.7536H41.2571L43.1562 12.6364Z" fill="#172B85"/>
</svg>
